<?xml version="1.0" encoding="utf-8"?>
<svg clip-rule="evenodd" fill-rule="evenodd" stroke-linecap="round" stroke-linejoin="round" stroke-miterlimit="1" version="1.1" viewBox="0 0 32 32" x="0px" y="0px" xmlns="http://www.w3.org/2000/svg">
  <rect width="32" height="32" fill="none"/>
  <rect width="32" height="32" fill="none" clip-path="url(#a)"/>
  <path d="M 16 3 C 13.005 3 10.745 2.998 8.961 3.199 C 7.177 3.401 5.787 3.82 4.801 4.807 C 3.815 5.794 3.397 7.184 3.197 8.967 C 2.997 10.75 3 13.009 3 16 C 3 18.992 2.999 21.251 3.203 23.035 C 3.407 24.819 3.832 26.21 4.82 27.195 C 5.809 28.181 7.197 28.6 8.978 28.801 C 10.76 29.002 13.017 29 16 29 C 18.983 29 21.239 29.002 23.021 28.799 C 24.803 28.596 26.194 28.172 27.182 27.186 C 28.169 26.199 28.593 24.81 28.797 23.027 C 29.001 21.245 29 18.987 29 16 C 29.011 15.23 28.184 14.737 27.512 15.113 C 27.191 15.292 26.995 15.633 27 16 C 27 18.985 26.99 21.214 26.809 22.801 C 26.627 24.388 26.288 25.251 25.768 25.772 C 25.247 26.292 24.381 26.63 22.795 26.811 C 21.208 26.992 18.982 27 16 27 C 13.018 27 10.79 26.994 9.203 26.815 C 7.616 26.635 6.753 26.298 6.232 25.779 C 5.712 25.261 5.373 24.397 5.191 22.809 C 5.01 21.221 5 18.99 5 16 C 5 13.009 5.005 10.778 5.184 9.19 C 5.362 7.601 5.7 6.738 6.217 6.221 C 6.734 5.703 7.595 5.365 9.184 5.186 C 10.772 5.006 13.006 5 16 5 L 20.5 5 C 21.27 5.011 21.763 4.184 21.387 3.512 C 21.208 3.192 20.867 2.995 20.5 3 L 16 3 Z" clip-rule="nonzero" color="#000000" color-rendering="auto" dominant-baseline="auto" fill-rule="nonzero" image-rendering="auto" shape-rendering="auto" solid-color="#000000" style="font-feature-settings: normal; font-variant-ligatures: normal; font-variant-caps: normal; isolation: auto; mix-blend-mode: normal; text-decoration: none solid rgb(0, 0, 0); text-indent: 0px; text-orientation: mixed; text-transform: none; white-space: normal; fill: rgb(0, 100, 0);" clip-path="url(#a)"/>
  <path d="M 28.98 4.99 C 28.72 4.998 28.474 5.107 28.292 5.293 L 15 18.586 L 9.707 13.293 C 9.173 12.738 8.238 12.97 8.025 13.709 C 7.922 14.066 8.025 14.45 8.292 14.707 L 14.292 20.707 C 14.683 21.097 15.316 21.097 15.707 20.707 L 29.706 6.707 C 30.259 6.17 30.023 5.237 29.282 5.028 C 29.184 5 29.082 4.987 28.98 4.99 Z" clip-rule="nonzero" color="#000000" color-rendering="auto" dominant-baseline="auto" fill-rule="nonzero" image-rendering="auto" shape-rendering="auto" solid-color="#000000" style="font-feature-settings: normal; font-variant-ligatures: normal; font-variant-caps: normal; isolation: auto; mix-blend-mode: normal; text-decoration: none solid rgb(0, 0, 0); text-indent: 0px; text-orientation: mixed; text-transform: none; white-space: normal; fill: rgb(0, 100, 0);" clip-path="url(#a)"/>
  <text x="0" y="47" fill="#000000" font-size="5px" font-weight="bold" font-family="'Helvetica Neue', Helvetica, Arial-Unicode, Arial, Sans-serif" style="white-space: pre;">Created by Raphaël Buquet</text>
  <text x="0" y="52" fill="#000000" font-size="5px" font-weight="bold" font-family="'Helvetica Neue', Helvetica, Arial-Unicode, Arial, Sans-serif" style="white-space: pre;">from the Noun Project</text>
</svg>