<?xml version="1.0" encoding="utf-8"?>
<svg clip-rule="evenodd" fill-rule="evenodd" stroke-linecap="round" stroke-linejoin="round" stroke-miterlimit="1" version="1.1" viewBox="0 0 32 32" x="0px" y="0px" xmlns="http://www.w3.org/2000/svg">
  <rect width="32" height="32" fill="none"/>
  <path d="m16 3c-2.9948 0-5.2552-0.0020954-7.0391 0.19922-1.7839 0.20131-3.1743 0.6205-4.1602 1.6074-0.98586 0.98692-1.4033 2.377-1.6035 4.1602-0.20022 1.7831-0.19727 4.0419-0.19727 7.0332 0 2.992-9.753e-4 5.2514 0.20312 7.0352 0.2041 1.7838 0.62891 3.1746 1.6172 4.1602 0.98828 0.98558 2.3765 1.4041 4.1582 1.6055 1.7817 0.20133 4.0382 0.19922 7.0215 0.19922 2.9835 0 5.2394 0.0018 7.0215-0.20117 1.782-0.20301 3.1725-0.62665 4.1602-1.6133s1.4111-2.3754 1.6152-4.1582 0.20312-4.0404 0.20312-7.0273c0-2.9863 0.002962-5.2432-0.19727-7.0254-0.20023-1.7822-0.61824-3.1722-1.6035-4.1602-0.98527-0.98798-2.374-1.4103-4.1582-1.6133-1.7842-0.203-4.046-0.20117-7.041-0.20117zm0 2c2.9935 0 5.2258 0.0087 6.8145 0.18945 1.5886 0.18075 2.4511 0.51809 2.9688 1.0371s0.85484 1.3831 1.0332 2.9707c0.17837 1.5876 0.18359 3.8171 0.18359 6.8027 0 2.985-0.0097 5.2139-0.19141 6.8008-0.18168 1.5869-0.52009 2.4503-1.041 2.9707s-1.3862 0.85833-2.9727 1.0391-3.813 0.18945-6.7949 0.18945c-2.9822 0-5.2101-0.006249-6.7969-0.18555-1.5868-0.1793-2.4504-0.51624-2.9707-1.0352s-0.85933-1.3829-1.041-2.9707c-0.18168-1.5878-0.19141-3.8186-0.19141-6.8086 0-2.9907 0.0052222-5.222 0.18359-6.8105 0.17837-1.5885 0.51618-2.4512 1.0332-2.9688 0.51702-0.51758 1.3779-0.85585 2.9668-1.0352 1.5889-0.17931 3.8227-0.18555 6.8164-0.18555z" clip-rule="nonzero" color="#000000" color-rendering="auto" dominant-baseline="auto" fill-rule="nonzero" image-rendering="auto" shape-rendering="auto" solid-color="#000000" style="font-feature-settings: normal; font-variant-ligatures: normal; font-variant-caps: normal; isolation: auto; mix-blend-mode: normal; text-decoration: none solid rgb(0, 0, 0); text-indent: 0px; text-orientation: mixed; text-transform: none; white-space: normal; fill: rgb(178, 34, 34);"/>
  <path d="m15.984 7.9863a1.0001 1.0001 0 0 0 -0.98438 1.0137v9a1.0001 1.0001 0 1 0 2 0v-9a1.0001 1.0001 0 0 0 -1.0156 -1.0137z" clip-rule="nonzero" color="#000000" color-rendering="auto" dominant-baseline="auto" fill-rule="nonzero" image-rendering="auto" shape-rendering="auto" solid-color="#000000" style="font-feature-settings: normal; font-variant-ligatures: normal; font-variant-caps: normal; isolation: auto; mix-blend-mode: normal; text-decoration: none solid rgb(0, 0, 0); text-indent: 0px; text-orientation: mixed; text-transform: none; white-space: normal; fill: rgb(178, 34, 34);"/>
  <circle cx="16" cy="23" r="1" style="fill: rgb(178, 34, 34);"/>
  <text x="0" y="47" fill="#000000" font-size="5px" font-weight="bold" font-family="'Helvetica Neue', Helvetica, Arial-Unicode, Arial, Sans-serif" style="white-space: pre;">Created by Raphaël Buquet</text>
  <text x="0" y="52" fill="#000000" font-size="5px" font-weight="bold" font-family="'Helvetica Neue', Helvetica, Arial-Unicode, Arial, Sans-serif" style="white-space: pre;">from the Noun Project</text>
</svg>