<?xml version="1.0" encoding="utf-8"?>
<svg viewBox="0 0 60 40" version="1.1" x="0px" y="0px" xmlns="http://www.w3.org/2000/svg">
  <path style="color: rgb(0, 0, 0); font-style: normal; font-variant-ligatures: normal; font-variant-caps: normal; font-weight: normal; font-stretch: normal; font-size: medium; line-height: normal; font-family: sans-serif; text-indent: 0px; text-align: start; text-decoration: none solid rgb(0, 0, 0); letter-spacing: normal; word-spacing: normal; text-transform: none; direction: ltr; writing-mode: lr-tb; baseline-shift: baseline; text-anchor: start; white-space: normal; clip-rule: nonzero; display: inline; overflow: visible; visibility: visible; opacity: 1; isolation: auto; mix-blend-mode: normal; color-interpolation: sRGB; color-interpolation-filters: linearRGB; fill-opacity: 1; fill-rule: nonzero; stroke: none; stroke-width: 2; stroke-linecap: round; stroke-linejoin: round; stroke-miterlimit: 4; stroke-dasharray: none; stroke-dashoffset: 0; stroke-opacity: 1; color-rendering: auto; image-rendering: auto; shape-rendering: auto; text-rendering: auto; fill: rgb(239, 82, 41);" d="M 18.837 31.658 C 21.494 34.315 25.834 34.261 28.538 31.557 L 40.626 19.469 C 43.33 16.765 43.384 12.425 40.727 9.768 L 40.373 9.414 C 37.716 6.757 33.376 6.811 30.673 9.515 L 18.584 21.604 C 15.88 24.307 15.826 28.647 18.483 31.304 L 18.837 31.658 Z M 19.608 30.887 L 19.254 30.533 C 17.02 28.299 17.056 24.674 19.355 22.374 L 31.444 10.286 C 33.743 7.987 37.368 7.951 39.602 10.185 L 39.956 10.539 C 42.19 12.773 42.155 16.398 39.855 18.698 L 27.767 30.786 C 25.468 33.085 21.842 33.121 19.608 30.887 Z" transform="matrix(0.707107, -0.707106, 0.707106, 0.707107, -5.850046, 26.948728)"/>
  <path style="color: rgb(0, 0, 0); font-style: normal; font-variant-ligatures: normal; font-variant-caps: normal; font-weight: normal; font-stretch: normal; font-size: medium; line-height: normal; font-family: sans-serif; text-indent: 0px; text-align: start; text-decoration: none solid rgb(0, 0, 0); letter-spacing: normal; word-spacing: normal; text-transform: none; direction: ltr; writing-mode: lr-tb; baseline-shift: baseline; text-anchor: start; white-space: normal; clip-rule: nonzero; display: inline; overflow: visible; visibility: visible; opacity: 1; isolation: auto; mix-blend-mode: normal; color-interpolation: sRGB; color-interpolation-filters: linearRGB; fill-opacity: 1; fill-rule: nonzero; stroke: none; stroke-width: 2; stroke-linecap: round; stroke-linejoin: round; stroke-miterlimit: 4; stroke-dasharray: none; stroke-dashoffset: 0; stroke-opacity: 1; color-rendering: auto; image-rendering: auto; shape-rendering: auto; text-rendering: auto; fill: rgb(239, 82, 41);" d="M 34.596 26.876 C 34.809 27.089 34.809 27.434 34.596 27.647 L 32.476 29.767 C 32.263 29.98 31.918 29.98 31.705 29.767 L 30.01 28.072 C 29.797 27.859 29.797 27.514 30.01 27.301 L 32.13 25.181 C 32.343 24.968 32.688 24.968 32.901 25.181 L 34.596 26.876 Z M 33.44 27.262 L 32.515 26.337 L 31.166 27.686 L 32.091 28.611 L 33.44 27.262 Z" transform="matrix(0.707108, -0.707106, 0.707106, 0.707108, -9.965726, 30.888562)"/>
  <path style="color: rgb(0, 0, 0); font-style: normal; font-variant-ligatures: normal; font-variant-caps: normal; font-weight: normal; font-stretch: normal; font-size: medium; line-height: normal; font-family: sans-serif; text-indent: 0px; text-align: start; text-decoration: none solid rgb(0, 0, 0); letter-spacing: normal; word-spacing: normal; text-transform: none; direction: ltr; writing-mode: lr-tb; baseline-shift: baseline; text-anchor: start; white-space: normal; clip-rule: nonzero; display: inline; overflow: visible; visibility: visible; opacity: 1; isolation: auto; mix-blend-mode: normal; color-interpolation: sRGB; color-interpolation-filters: linearRGB; fill-opacity: 1; fill-rule: nonzero; stroke: none; stroke-width: 2; stroke-linecap: round; stroke-linejoin: round; stroke-miterlimit: 4; stroke-dasharray: none; stroke-dashoffset: 0; stroke-opacity: 1; color-rendering: auto; image-rendering: auto; shape-rendering: auto; text-rendering: auto; fill: rgb(239, 82, 41);" d="M 29.2 26.877 C 29.413 27.09 29.413 27.435 29.2 27.648 L 27.08 29.767 C 26.868 29.98 26.522 29.98 26.31 29.767 L 24.614 28.072 C 24.401 27.859 24.401 27.514 24.614 27.301 L 26.733 25.181 C 26.946 24.968 27.291 24.968 27.504 25.181 L 29.2 26.877 Z M 28.044 27.262 L 27.119 26.337 L 25.77 27.686 L 26.695 28.611 L 28.044 27.262 Z" transform="matrix(0.707108, -0.707105, 0.707105, 0.707108, -11.546172, 27.072992)"/>
  <path style="color: rgb(0, 0, 0); font-style: normal; font-variant-ligatures: normal; font-variant-caps: normal; font-weight: normal; font-stretch: normal; font-size: medium; line-height: normal; font-family: sans-serif; text-indent: 0px; text-align: start; text-decoration: none solid rgb(0, 0, 0); letter-spacing: normal; word-spacing: normal; text-transform: none; direction: ltr; writing-mode: lr-tb; baseline-shift: baseline; text-anchor: start; white-space: normal; clip-rule: nonzero; display: inline; overflow: visible; visibility: visible; opacity: 1; isolation: auto; mix-blend-mode: normal; color-interpolation: sRGB; color-interpolation-filters: linearRGB; fill-opacity: 1; fill-rule: evenodd; stroke: none; stroke-width: 2; stroke-linecap: round; stroke-linejoin: round; stroke-miterlimit: 4; stroke-dasharray: none; stroke-dashoffset: 0; stroke-opacity: 1; color-rendering: auto; image-rendering: auto; shape-rendering: auto; text-rendering: auto; fill: rgb(239, 82, 41);" d="M 28.788 25.724 C 28.368 25.724 28.105 26.178 28.314 26.541 C 28.34 26.585 28.371 26.626 28.408 26.661 L 30.032 28.285 C 30.323 28.587 30.832 28.461 30.949 28.058 C 31.005 27.864 30.949 27.654 30.803 27.514 L 29.178 25.891 C 29.076 25.785 28.935 25.725 28.788 25.724 Z" transform="matrix(0.707108, -0.707106, 0.707106, 0.707108, -10.482904, 28.868138)"/>
  <path style="color: rgb(0, 0, 0); font-style: normal; font-variant-ligatures: normal; font-variant-caps: normal; font-weight: normal; font-stretch: normal; font-size: medium; line-height: normal; font-family: sans-serif; text-indent: 0px; text-align: start; text-decoration: none solid rgb(0, 0, 0); letter-spacing: normal; word-spacing: normal; text-transform: none; direction: ltr; writing-mode: lr-tb; baseline-shift: baseline; text-anchor: start; white-space: normal; clip-rule: nonzero; display: inline; overflow: visible; visibility: visible; opacity: 1; isolation: auto; mix-blend-mode: normal; color-interpolation: sRGB; color-interpolation-filters: linearRGB; fill-opacity: 1; fill-rule: nonzero; stroke: none; stroke-width: 2; stroke-linecap: round; stroke-linejoin: round; stroke-miterlimit: 4; stroke-dasharray: none; stroke-dashoffset: 0; stroke-opacity: 1; color-rendering: auto; image-rendering: auto; shape-rendering: auto; text-rendering: auto; fill: rgb(239, 82, 41);" d="M 24.614 14.195 C 24.401 13.983 24.401 13.637 24.614 13.424 L 26.733 11.305 C 26.946 11.092 27.291 11.092 27.504 11.305 L 29.2 13.001 C 29.413 13.214 29.413 13.559 29.2 13.772 L 27.08 15.891 C 26.868 16.104 26.523 16.104 26.31 15.891 L 24.614 14.195 Z M 25.77 13.81 L 26.695 14.735 L 28.044 13.386 L 27.119 12.461 L 25.77 13.81 Z" transform="matrix(0.707108, -0.707106, 0.707106, 0.707108, -1.734373, 23.008846)"/>
  <path style="color: rgb(0, 0, 0); font-style: normal; font-variant-ligatures: normal; font-variant-caps: normal; font-weight: normal; font-stretch: normal; font-size: medium; line-height: normal; font-family: sans-serif; text-indent: 0px; text-align: start; text-decoration: none solid rgb(0, 0, 0); letter-spacing: normal; word-spacing: normal; text-transform: none; direction: ltr; writing-mode: lr-tb; baseline-shift: baseline; text-anchor: start; white-space: normal; clip-rule: nonzero; display: inline; overflow: visible; visibility: visible; opacity: 1; isolation: auto; mix-blend-mode: normal; color-interpolation: sRGB; color-interpolation-filters: linearRGB; fill-opacity: 1; fill-rule: nonzero; stroke: none; stroke-width: 2; stroke-linecap: round; stroke-linejoin: round; stroke-miterlimit: 4; stroke-dasharray: none; stroke-dashoffset: 0; stroke-opacity: 1; color-rendering: auto; image-rendering: auto; shape-rendering: auto; text-rendering: auto; fill: rgb(239, 82, 41);" d="M 30.01 14.196 C 29.797 13.983 29.797 13.638 30.01 13.425 L 32.13 11.305 C 32.343 11.092 32.688 11.092 32.901 11.305 L 34.596 13 C 34.809 13.213 34.809 13.558 34.596 13.771 L 32.476 15.891 C 32.263 16.104 31.918 16.104 31.705 15.891 L 30.01 14.196 Z M 31.166 13.81 L 32.091 14.735 L 33.44 13.386 L 32.515 12.461 L 31.166 13.81 Z" transform="matrix(0.707108, -0.707105, 0.707105, 0.707108, -0.153935, 26.824367)"/>
  <path style="color: rgb(0, 0, 0); font-style: normal; font-variant-ligatures: normal; font-variant-caps: normal; font-weight: normal; font-stretch: normal; font-size: medium; line-height: normal; font-family: sans-serif; text-indent: 0px; text-align: start; text-decoration: none solid rgb(0, 0, 0); letter-spacing: normal; word-spacing: normal; text-transform: none; direction: ltr; writing-mode: lr-tb; baseline-shift: baseline; text-anchor: start; white-space: normal; clip-rule: nonzero; display: inline; overflow: visible; visibility: visible; opacity: 1; isolation: auto; mix-blend-mode: normal; color-interpolation: sRGB; color-interpolation-filters: linearRGB; fill-opacity: 1; fill-rule: evenodd; stroke: none; stroke-width: 2; stroke-linecap: round; stroke-linejoin: round; stroke-miterlimit: 4; stroke-dasharray: none; stroke-dashoffset: 0; stroke-opacity: 1; color-rendering: auto; image-rendering: auto; shape-rendering: auto; text-rendering: auto; fill: rgb(239, 82, 41);" d="M 28.788 12.62 C 28.368 12.619 28.105 13.073 28.314 13.436 C 28.34 13.481 28.371 13.521 28.408 13.557 L 30.032 15.18 C 30.323 15.483 30.832 15.358 30.949 14.955 C 31.006 14.76 30.95 14.55 30.803 14.409 L 29.179 12.786 C 29.076 12.68 28.935 12.62 28.788 12.62 Z" transform="matrix(0.707107, -0.707106, 0.707106, 0.707107, -1.216927, 25.030316)"/>
  <g transform="matrix(0.24298, 0, 0, 0.24298, 35.350761, 7.099908)">
    <path d="M 16.271 33.275 C 19.92 30.689 24.568 28.338 29.732 26.529 C 31.042 26.121 32.338 25.61 33.703 25.291 C 34.377 25.106 35.056 24.919 35.737 24.732 C 36.437 24.582 37.14 24.431 37.846 24.28 C 40.66 23.653 43.622 23.244 46.595 22.88 C 52.544 22.05 58.672 21.685 64.443 21.006 C 70.225 20.432 75.648 19.413 80.271 18.478 C 84.911 17.531 88.612 15.968 91.156 14.964 C 92.411 14.385 93.354 13.832 94.007 13.505 C 94.655 13.165 95 12.983 95 12.983 C 95 12.983 94.614 13.05 93.89 13.175 C 93.164 13.284 92.126 13.513 90.781 13.669 C 88.123 14.13 84.289 14.318 79.745 14.633 C 75.184 14.946 69.825 14.78 64.049 14.942 C 58.266 15.036 52.045 15.311 45.734 16.035 C 42.589 16.496 39.429 16.998 36.334 17.811 C 35.561 18.012 34.79 18.202 34.027 18.416 C 33.268 18.67 32.513 18.922 31.763 19.173 C 30.249 19.638 28.841 20.312 27.438 20.915 C 26.729 21.196 26.063 21.568 25.396 21.912 C 24.735 22.265 24.08 22.615 23.432 22.961 C 22.81 23.353 22.195 23.741 21.587 24.124 C 20.981 24.507 20.384 24.884 19.83 25.312 C 18.701 26.135 17.613 26.935 16.626 27.798 C 15.606 28.613 14.692 29.484 13.804 30.296 C 10.269 33.604 8.197 37.112 6.777 39.454 C 5.484 41.918 5 43.41 5 43.41 C 5 43.41 5.925 42.136 7.848 40.25 C 9.679 38.292 12.632 35.85 16.271 33.275 Z" style="fill: rgb(239, 82, 41);"/>
    <path d="M 90.648 22.796 C 88.171 23.57 84.506 24.009 80.166 24.437 C 75.806 24.88 70.657 24.713 65.111 24.728 C 59.558 24.667 53.575 24.677 47.5 24.889 C 41.443 25.253 35.25 25.837 29.531 27.497 C 23.761 29.062 18.87 31.956 15.126 34.755 C 11.337 37.576 8.995 40.761 7.39 42.864 C 6.634 43.973 6.087 44.86 5.696 45.446 C 5.5 45.739 5.345 45.954 5.218 46.082 C 5.154 46.144 5.094 46.183 5.053 46.183 C 5.01 46.183 5.004 46.153 5.001 46.159 C 5.004 46.153 5.014 46.19 5.066 46.202 C 5.116 46.214 5.189 46.194 5.273 46.153 C 5.441 46.069 5.669 45.904 5.952 45.685 C 6.518 45.245 7.318 44.576 8.361 43.782 C 10.345 42.089 13.459 40.059 17.226 38.005 C 21.001 35.917 25.767 34.37 30.942 33.397 C 36.152 32.448 41.942 31.987 47.83 31.782 C 53.713 31.431 59.703 31.331 65.363 30.802 C 71.027 30.37 76.338 29.346 80.829 28.263 C 83.079 27.724 85.096 26.987 86.83 26.24 C 88.566 25.484 90.011 24.69 91.182 24.036 C 92.32 23.303 93.177 22.695 93.73 22.237 C 94.286 21.794 94.583 21.557 94.583 21.557 C 94.583 21.557 94.227 21.687 93.56 21.93 C 92.902 22.182 91.908 22.481 90.648 22.796 Z" style="fill: rgb(239, 82, 41);"/>
    <path d="M 85.331 34.175 C 84.884 34.273 84.384 34.404 83.802 34.487 C 82.686 34.772 81.282 34.938 79.693 35.078 C 78.094 35.197 76.304 35.276 74.352 35.371 C 70.436 35.553 65.838 35.157 60.885 34.954 C 55.926 34.667 50.587 34.462 45.171 34.35 C 39.759 34.39 34.251 34.533 29.068 35.445 C 26.495 35.867 23.93 36.507 21.635 37.406 C 19.329 38.277 17.263 39.34 15.427 40.392 C 11.739 42.528 9.371 45.18 7.694 46.821 C 6.893 47.703 6.28 48.39 5.802 48.763 C 5.574 48.946 5.328 49.043 5.187 49.009 C 5.041 48.981 5.008 48.896 5 48.908 C 5.008 48.895 5.045 49.01 5.205 49.094 C 5.367 49.182 5.63 49.177 5.957 49.073 C 6.601 48.87 7.448 48.421 8.505 47.877 C 10.533 46.666 13.549 45.242 17.112 43.87 C 18.897 43.179 20.89 42.623 23.016 42.239 C 25.141 41.828 27.38 41.648 29.791 41.464 C 34.59 41.178 39.822 41.138 45.123 41.247 C 50.424 41.21 55.801 41.328 60.891 41.029 C 65.983 40.822 70.772 40.033 74.836 39.22 C 76.872 38.805 78.708 38.214 80.29 37.598 C 81.871 36.958 83.202 36.311 84.272 35.748 C 84.802 35.455 85.249 35.137 85.641 34.881 C 86.035 34.63 86.355 34.392 86.609 34.192 C 87.117 33.804 87.388 33.597 87.388 33.597 C 87.388 33.597 87.062 33.695 86.452 33.878 C 86.154 33.975 85.781 34.082 85.331 34.175 Z" style="fill: rgb(239, 82, 41);"/>
    <path d="M 73.46 48.018 C 71.469 48.23 68.612 48.078 65.263 48.062 C 61.896 48.034 57.98 47.521 53.792 47.163 C 49.605 46.722 45.123 46.311 40.636 45.736 C 36.134 45.308 31.63 44.729 27.363 44.363 C 26.83 44.313 26.301 44.263 25.777 44.214 C 25.242 44.17 24.766 44.13 24.149 44.096 C 22.983 44.017 21.828 44.059 20.719 44.173 C 18.497 44.403 16.465 44.987 14.713 45.686 C 11.167 47.111 9.046 49.403 7.502 50.613 C 6.754 51.284 6.194 51.773 5.678 51.862 C 5.424 51.915 5.243 51.835 5.143 51.772 C 5.049 51.697 5 51.658 5 51.658 C 5 51.658 5.048 51.727 5.139 51.86 C 5.239 51.981 5.424 52.151 5.716 52.209 C 5.995 52.279 6.386 52.257 6.802 52.163 C 7.218 52.073 7.676 51.933 8.174 51.767 C 10.081 50.972 12.78 49.983 15.843 49.385 C 17.376 49.07 19.055 49.007 20.775 49.201 C 21.636 49.3 22.509 49.445 23.391 49.666 C 23.877 49.78 24.369 49.895 24.865 50.011 C 25.385 50.125 25.909 50.24 26.438 50.356 C 30.671 51.301 35.253 52.003 39.869 52.592 C 44.499 53.035 49.167 53.374 53.575 53.236 C 57.982 53.191 62.103 52.52 65.594 51.929 C 69.104 51.316 71.892 50.085 73.794 49.325 C 74.734 48.881 75.431 48.431 75.914 48.177 C 76.391 47.908 76.645 47.764 76.645 47.764 C 76.645 47.764 76.352 47.792 75.803 47.844 C 75.253 47.879 74.473 48.001 73.46 48.018 Z" style="fill: rgb(239, 82, 41);"/>
    <path d="M 53.489 59.165 C 50.801 58.748 47.722 57.906 44.427 57.261 C 41.141 56.531 37.63 55.864 34.168 54.999 C 30.673 54.278 27.232 53.37 23.997 52.563 C 23.586 52.457 23.179 52.352 22.775 52.249 C 22.297 52.127 21.824 52.011 21.346 51.932 C 20.394 51.761 19.448 51.672 18.532 51.668 C 16.697 51.642 15.01 51.924 13.541 52.255 C 10.585 52.946 8.619 54.388 7.207 54.691 C 6.527 54.94 5.925 54.898 5.539 54.736 C 5.165 54.569 5.008 54.396 5 54.407 C 5.012 54.398 5.075 54.652 5.372 55.036 C 5.658 55.408 6.304 55.852 7.241 56.022 C 9.069 56.24 11.487 56.07 14.011 56.091 C 15.277 56.091 16.6 56.273 17.902 56.654 C 18.555 56.836 19.203 57.076 19.85 57.348 C 20.175 57.477 20.496 57.633 20.82 57.78 C 21.218 57.95 21.619 58.122 22.024 58.295 C 25.309 59.731 28.959 60.81 32.634 61.723 C 36.342 62.494 40.08 63.11 43.629 63.283 C 47.169 63.546 50.51 63.226 53.332 63.041 C 56.165 62.86 58.5 62.108 60.105 61.773 C 61.69 61.239 62.596 60.933 62.596 60.933 C 62.596 60.933 61.651 60.765 60.042 60.426 C 58.433 60.21 56.169 59.592 53.489 59.165 Z" style="fill: rgb(239, 82, 41);"/>
    <path d="M 42.487 66.931 C 40.422 66.214 38.082 65.114 35.506 64.302 C 32.949 63.406 30.175 62.662 27.424 61.837 C 26.031 61.489 24.639 61.141 23.268 60.798 C 21.879 60.461 20.591 60.14 19.129 59.869 C 16.315 59.299 13.675 59.347 11.632 59.051 C 10.608 58.907 9.678 58.833 8.86 58.701 C 8.057 58.557 7.323 58.388 6.795 58.102 C 6.213 57.886 5.752 57.646 5.462 57.452 C 5.161 57.26 5 57.157 5 57.157 C 5 57.157 5.068 57.337 5.194 57.675 C 5.317 58.023 5.55 58.516 5.937 59.124 C 6.362 59.688 6.951 60.342 7.723 61.012 C 8.499 61.665 9.458 62.273 10.525 62.757 C 12.672 63.71 15.033 64.778 17.473 65.703 C 18.635 66.187 20.037 66.721 21.404 67.175 C 22.784 67.642 24.198 68.071 25.615 68.495 C 28.485 69.2 31.363 69.878 34.125 70.22 C 36.868 70.649 39.515 70.609 41.737 70.739 C 43.964 70.863 45.891 70.505 47.196 70.443 C 48.525 70.22 49.284 70.093 49.284 70.093 C 49.284 70.093 48.605 69.737 47.417 69.113 C 46.209 68.631 44.548 67.647 42.487 66.931 Z" style="fill: rgb(239, 82, 41);"/>
    <path d="M 28.433 74.967 C 27.114 74.096 25.732 72.814 24.139 71.773 C 22.578 70.661 20.877 69.612 19.237 68.479 C 17.518 67.466 15.913 66.318 14.285 65.364 C 13.519 64.834 12.684 64.414 11.932 63.958 C 11.545 63.737 11.169 63.522 10.805 63.314 C 10.454 63.09 10.116 62.868 9.799 62.645 C 9.15 62.213 8.518 61.841 7.927 61.522 C 7.327 61.21 6.794 60.932 6.414 60.65 C 5.514 60.177 5 59.906 5 59.906 C 5 59.906 5.132 60.476 5.362 61.473 C 5.531 61.939 5.708 62.534 5.964 63.191 C 6.211 63.854 6.515 64.6 6.985 65.299 C 7.216 65.652 7.448 66.031 7.688 66.427 C 7.944 66.811 8.208 67.208 8.48 67.615 C 9.02 68.446 9.676 69.241 10.402 70.022 C 11.853 71.581 13.633 72.994 15.486 74.268 C 17.419 75.415 19.382 76.509 21.373 77.182 C 23.323 77.943 25.316 78.206 26.937 78.546 C 28.561 78.898 30.065 78.724 31.035 78.783 C 32.055 78.69 32.637 78.637 32.637 78.637 C 32.637 78.637 32.221 78.229 31.493 77.515 C 30.721 76.943 29.738 75.851 28.433 74.967 Z" style="fill: rgb(239, 82, 41);"/>
  </g>
  <g transform="matrix(-0.24298, 0, 0, 0.24298, 23.957085, 6.095284)">
    <path d="M 16.271 37.391 C 19.92 34.805 24.568 32.454 29.732 30.645 C 31.042 30.237 32.338 29.726 33.703 29.407 C 34.377 29.222 35.056 29.035 35.737 28.848 C 36.437 28.698 37.14 28.547 37.846 28.396 C 40.66 27.769 43.622 27.36 46.595 26.996 C 52.544 26.166 58.672 25.801 64.443 25.122 C 70.225 24.548 75.648 23.529 80.271 22.594 C 84.911 21.647 88.612 20.084 91.156 19.08 C 92.411 18.501 93.354 17.948 94.007 17.621 C 94.655 17.281 95 17.099 95 17.099 C 95 17.099 94.614 17.166 93.89 17.291 C 93.164 17.4 92.126 17.629 90.781 17.785 C 88.123 18.246 84.289 18.434 79.745 18.749 C 75.184 19.062 69.825 18.896 64.049 19.058 C 58.266 19.152 52.045 19.427 45.734 20.151 C 42.589 20.612 39.429 21.114 36.334 21.927 C 35.561 22.128 34.79 22.318 34.027 22.532 C 33.268 22.786 32.513 23.038 31.763 23.289 C 30.249 23.754 28.841 24.428 27.438 25.031 C 26.729 25.312 26.063 25.684 25.396 26.028 C 24.735 26.381 24.08 26.731 23.432 27.077 C 22.81 27.469 22.195 27.857 21.587 28.24 C 20.981 28.623 20.384 29 19.83 29.428 C 18.701 30.251 17.613 31.051 16.626 31.914 C 15.606 32.729 14.692 33.6 13.804 34.412 C 10.269 37.72 8.197 41.228 6.777 43.57 C 5.484 46.034 5 47.526 5 47.526 C 5 47.526 5.925 46.252 7.848 44.366 C 9.679 42.408 12.632 39.966 16.271 37.391 Z" style="fill: rgb(239, 82, 41);"/>
    <path d="M 90.648 26.912 C 88.171 27.686 84.506 28.125 80.166 28.553 C 75.806 28.996 70.657 28.829 65.111 28.844 C 59.558 28.783 53.575 28.793 47.5 29.005 C 41.443 29.369 35.25 29.953 29.531 31.613 C 23.761 33.178 18.87 36.072 15.126 38.871 C 11.337 41.692 8.995 44.877 7.39 46.98 C 6.634 48.089 6.087 48.976 5.696 49.562 C 5.5 49.855 5.345 50.07 5.218 50.198 C 5.154 50.26 5.094 50.299 5.053 50.299 C 5.01 50.299 5.004 50.269 5.001 50.275 C 5.004 50.269 5.014 50.306 5.066 50.318 C 5.116 50.33 5.189 50.31 5.273 50.269 C 5.441 50.185 5.669 50.02 5.952 49.801 C 6.518 49.361 7.318 48.692 8.361 47.898 C 10.345 46.205 13.459 44.175 17.226 42.121 C 21.001 40.033 25.767 38.486 30.942 37.513 C 36.152 36.564 41.942 36.103 47.83 35.898 C 53.713 35.547 59.703 35.447 65.363 34.918 C 71.027 34.486 76.338 33.462 80.829 32.379 C 83.079 31.84 85.096 31.103 86.83 30.356 C 88.566 29.6 90.011 28.806 91.182 28.152 C 92.32 27.419 93.177 26.811 93.73 26.353 C 94.286 25.91 94.583 25.673 94.583 25.673 C 94.583 25.673 94.227 25.803 93.56 26.046 C 92.902 26.298 91.908 26.597 90.648 26.912 Z" style="fill: rgb(239, 82, 41);"/>
    <path d="M 85.331 38.291 C 84.884 38.389 84.384 38.52 83.802 38.603 C 82.686 38.888 81.282 39.054 79.693 39.194 C 78.094 39.313 76.304 39.392 74.352 39.487 C 70.436 39.669 65.838 39.273 60.885 39.07 C 55.926 38.783 50.587 38.578 45.171 38.466 C 39.759 38.506 34.251 38.649 29.068 39.561 C 26.495 39.983 23.93 40.623 21.635 41.522 C 19.329 42.393 17.263 43.456 15.427 44.508 C 11.739 46.644 9.371 49.296 7.694 50.937 C 6.893 51.819 6.28 52.506 5.802 52.879 C 5.574 53.062 5.328 53.159 5.187 53.125 C 5.041 53.097 5.008 53.012 5 53.024 C 5.008 53.011 5.045 53.126 5.205 53.21 C 5.367 53.298 5.63 53.293 5.957 53.189 C 6.601 52.986 7.448 52.537 8.505 51.993 C 10.533 50.782 13.549 49.358 17.112 47.986 C 18.897 47.295 20.89 46.739 23.016 46.355 C 25.141 45.944 27.38 45.764 29.791 45.58 C 34.59 45.294 39.822 45.254 45.123 45.363 C 50.424 45.326 55.801 45.444 60.891 45.145 C 65.983 44.938 70.772 44.149 74.836 43.336 C 76.872 42.921 78.708 42.33 80.29 41.714 C 81.871 41.074 83.202 40.427 84.272 39.864 C 84.802 39.571 85.249 39.253 85.641 38.997 C 86.035 38.746 86.355 38.508 86.609 38.308 C 87.117 37.92 87.388 37.713 87.388 37.713 C 87.388 37.713 87.062 37.811 86.452 37.994 C 86.154 38.091 85.781 38.198 85.331 38.291 Z" style="fill: rgb(239, 82, 41);"/>
    <path d="M 73.46 52.134 C 71.469 52.346 68.612 52.194 65.263 52.178 C 61.896 52.15 57.98 51.637 53.792 51.279 C 49.605 50.838 45.123 50.427 40.636 49.852 C 36.134 49.424 31.63 48.845 27.363 48.479 C 26.83 48.429 26.301 48.379 25.777 48.33 C 25.242 48.286 24.766 48.246 24.149 48.212 C 22.983 48.133 21.828 48.175 20.719 48.289 C 18.497 48.519 16.465 49.103 14.713 49.802 C 11.167 51.227 9.046 53.519 7.502 54.729 C 6.754 55.4 6.194 55.889 5.678 55.978 C 5.424 56.031 5.243 55.951 5.143 55.888 C 5.049 55.813 5 55.774 5 55.774 C 5 55.774 5.048 55.843 5.139 55.976 C 5.239 56.097 5.424 56.267 5.716 56.325 C 5.995 56.395 6.386 56.373 6.802 56.279 C 7.218 56.189 7.676 56.049 8.174 55.883 C 10.081 55.088 12.78 54.099 15.843 53.501 C 17.376 53.186 19.055 53.123 20.775 53.317 C 21.636 53.416 22.509 53.561 23.391 53.782 C 23.877 53.896 24.369 54.011 24.865 54.127 C 25.385 54.241 25.909 54.356 26.438 54.472 C 30.671 55.417 35.253 56.119 39.869 56.708 C 44.499 57.151 49.167 57.49 53.575 57.352 C 57.982 57.307 62.103 56.636 65.594 56.045 C 69.104 55.432 71.892 54.201 73.794 53.441 C 74.734 52.997 75.431 52.547 75.914 52.293 C 76.391 52.024 76.645 51.88 76.645 51.88 C 76.645 51.88 76.352 51.908 75.803 51.96 C 75.253 51.995 74.473 52.117 73.46 52.134 Z" style="fill: rgb(239, 82, 41);"/>
    <path d="M 53.489 63.281 C 50.801 62.864 47.722 62.022 44.427 61.377 C 41.141 60.647 37.63 59.98 34.168 59.115 C 30.673 58.394 27.232 57.486 23.997 56.679 C 23.586 56.573 23.179 56.468 22.775 56.365 C 22.297 56.243 21.824 56.127 21.346 56.048 C 20.394 55.877 19.448 55.788 18.532 55.784 C 16.697 55.758 15.01 56.04 13.541 56.371 C 10.585 57.062 8.619 58.504 7.207 58.807 C 6.527 59.056 5.925 59.014 5.539 58.852 C 5.165 58.685 5.008 58.512 5 58.523 C 5.012 58.514 5.075 58.768 5.372 59.152 C 5.658 59.524 6.304 59.968 7.241 60.138 C 9.069 60.356 11.487 60.186 14.011 60.207 C 15.277 60.207 16.6 60.389 17.902 60.77 C 18.555 60.952 19.203 61.192 19.85 61.464 C 20.175 61.593 20.496 61.749 20.82 61.896 C 21.218 62.066 21.619 62.238 22.024 62.411 C 25.309 63.847 28.959 64.926 32.634 65.839 C 36.342 66.61 40.08 67.226 43.629 67.399 C 47.169 67.662 50.51 67.342 53.332 67.157 C 56.165 66.976 58.5 66.224 60.105 65.889 C 61.69 65.355 62.596 65.049 62.596 65.049 C 62.596 65.049 61.651 64.881 60.042 64.542 C 58.433 64.326 56.169 63.708 53.489 63.281 Z" style="fill: rgb(239, 82, 41);"/>
    <path d="M 42.487 71.047 C 40.422 70.33 38.082 69.23 35.506 68.418 C 32.949 67.522 30.175 66.778 27.424 65.953 C 26.031 65.605 24.639 65.257 23.268 64.914 C 21.879 64.577 20.591 64.256 19.129 63.985 C 16.315 63.415 13.675 63.463 11.632 63.167 C 10.608 63.023 9.678 62.949 8.86 62.817 C 8.057 62.673 7.323 62.504 6.795 62.218 C 6.213 62.002 5.752 61.762 5.462 61.568 C 5.161 61.376 5 61.273 5 61.273 C 5 61.273 5.068 61.453 5.194 61.791 C 5.317 62.139 5.55 62.632 5.937 63.24 C 6.362 63.804 6.951 64.458 7.723 65.128 C 8.499 65.781 9.458 66.389 10.525 66.873 C 12.672 67.826 15.033 68.894 17.473 69.819 C 18.635 70.303 20.037 70.837 21.404 71.291 C 22.784 71.758 24.198 72.187 25.615 72.611 C 28.485 73.316 31.363 73.994 34.125 74.336 C 36.868 74.765 39.515 74.725 41.737 74.855 C 43.964 74.979 45.891 74.621 47.196 74.559 C 48.525 74.336 49.284 74.209 49.284 74.209 C 49.284 74.209 48.605 73.853 47.417 73.229 C 46.209 72.747 44.548 71.763 42.487 71.047 Z" style="fill: rgb(239, 82, 41);"/>
    <path d="M 28.433 79.083 C 27.114 78.212 25.732 76.93 24.139 75.889 C 22.578 74.777 20.877 73.728 19.237 72.595 C 17.518 71.582 15.913 70.434 14.285 69.48 C 13.519 68.95 12.684 68.53 11.932 68.074 C 11.545 67.853 11.169 67.638 10.805 67.43 C 10.454 67.206 10.116 66.984 9.799 66.761 C 9.15 66.329 8.518 65.957 7.927 65.638 C 7.327 65.326 6.794 65.048 6.414 64.766 C 5.514 64.293 5 64.022 5 64.022 C 5 64.022 5.132 64.592 5.362 65.589 C 5.531 66.055 5.708 66.65 5.964 67.307 C 6.211 67.97 6.515 68.716 6.985 69.415 C 7.216 69.768 7.448 70.147 7.688 70.543 C 7.944 70.927 8.208 71.324 8.48 71.731 C 9.02 72.562 9.676 73.357 10.402 74.138 C 11.853 75.697 13.633 77.11 15.486 78.384 C 17.419 79.531 19.382 80.625 21.373 81.298 C 23.323 82.059 25.316 82.322 26.937 82.662 C 28.561 83.014 30.065 82.84 31.035 82.899 C 32.055 82.806 32.637 82.753 32.637 82.753 C 32.637 82.753 32.221 82.345 31.493 81.631 C 30.721 81.059 29.738 79.967 28.433 79.083 Z" style="fill: rgb(239, 82, 41);"/>
  </g>
</svg>